{"glyphs":{"0":{"ha":792,"x_min":74,"x_max":715,"o":"m 394 -29 q 154 129 243 -29 q 74 479 74 272 q 153 829 74 688 q 394 989 242 989 q 635 829 546 989 q 715 479 715 685 q 636 129 715 271 q 394 -29 547 -29 m 394 89 q 547 211 490 89 q 599 479 599 322 q 549 749 599 640 q 394 871 492 871 q 242 749 299 871 q 190 479 190 638 q 240 211 190 319 q 394 89 297 89 z "},"1":{"ha":792,"x_min":217,"x_max":575,"o":"m 575 0 l 443 0 l 443 697 l 217 697 l 217 796 q 388 833 332 796 q 476 986 449 875 l 575 986 l 575 0 z "},"2":{"ha":792,"x_min":60,"x_max":732,"o":"m 732 0 l 60 0 q 199 314 60 189 q 458 488 200 315 q 599 692 599 581 q 544 819 599 772 q 413 867 489 867 q 274 811 329 867 q 210 631 210 747 l 82 631 q 183 901 82 806 q 410 986 272 986 q 631 910 538 986 q 732 694 732 826 q 614 450 732 542 q 379 317 496 383 q 201 122 236 235 l 732 122 l 732 0 z "},"3":{"ha":792,"x_min":54,"x_max":738,"o":"m 738 285 q 636 56 738 142 q 400 -25 542 -25 q 157 53 249 -25 q 54 308 54 140 l 185 308 q 246 147 185 203 q 396 96 303 96 q 540 140 485 96 q 603 281 603 190 q 511 429 603 390 q 324 454 451 454 l 324 565 q 488 585 442 565 q 565 719 565 618 q 516 835 565 792 q 396 879 467 879 q 255 824 307 879 q 203 661 203 769 l 78 661 q 167 910 78 822 q 388 992 250 992 q 604 921 514 992 q 701 724 701 844 q 669 608 701 657 q 578 525 638 558 q 697 435 656 500 q 738 285 738 369 z "},"4":{"ha":792,"x_min":49,"x_max":743,"o":"m 743 243 l 603 243 l 603 0 l 476 0 l 476 243 l 49 243 l 49 368 l 475 958 l 603 958 l 603 354 l 743 354 l 743 243 m 476 354 l 476 794 l 164 354 l 476 354 z "},"5":{"ha":792,"x_min":54,"x_max":738,"o":"m 738 314 q 626 60 738 153 q 382 -24 526 -24 q 156 47 249 -24 q 54 256 54 125 l 183 256 q 259 132 204 174 q 382 90 314 90 q 533 149 471 90 q 601 314 601 213 q 538 469 601 411 q 386 528 475 528 q 285 506 332 528 q 197 439 238 485 l 82 439 l 160 958 l 685 958 l 685 840 l 254 840 l 214 579 q 306 628 258 613 q 407 643 354 643 q 636 553 540 643 q 738 314 738 457 z "},"6":{"ha":792,"x_min":53,"x_max":739,"o":"m 739 313 q 633 63 739 163 q 400 -31 535 -31 q 163 79 257 -31 q 53 440 53 207 q 178 860 53 713 q 442 986 285 986 q 643 913 560 986 q 732 714 732 833 l 601 714 q 544 831 594 786 q 426 875 494 875 q 268 793 332 875 q 193 517 193 697 q 301 597 240 569 q 428 624 363 624 q 643 540 553 624 q 739 313 739 451 m 603 299 q 540 461 603 400 q 404 515 485 515 q 268 461 324 515 q 207 300 207 401 q 269 138 207 199 q 406 83 325 83 q 542 138 486 83 q 603 299 603 197 z "},"7":{"ha":792,"x_min":60,"x_max":732,"o":"m 732 840 q 470 449 561 642 q 336 0 379 256 l 193 0 q 329 442 236 253 q 594 831 422 631 l 60 831 l 60 958 l 732 958 l 732 840 z "},"8":{"ha":792,"x_min":56,"x_max":736,"o":"m 572 528 q 694 425 653 492 q 736 281 736 358 q 649 71 736 158 q 396 -26 551 -26 q 143 69 239 -26 q 56 279 56 157 q 97 426 56 360 q 221 528 139 492 q 122 615 154 563 q 89 726 89 668 q 172 904 89 828 q 396 986 263 986 q 619 906 531 986 q 703 728 703 831 q 671 617 703 668 q 572 528 639 565 m 396 565 q 520 610 476 565 q 564 718 564 656 q 522 824 564 782 q 393 872 475 872 q 267 825 314 872 q 225 721 225 783 q 267 614 225 657 q 396 565 314 565 m 396 90 q 546 150 489 90 q 597 281 597 204 q 547 408 597 356 q 396 465 493 465 q 244 408 300 465 q 194 281 194 357 q 244 150 194 203 q 396 90 300 90 z "},"9":{"ha":792,"x_min":53,"x_max":739,"o":"m 739 525 q 619 94 739 242 q 363 -32 517 -32 q 150 47 242 -32 q 58 243 58 126 l 190 243 q 246 129 190 176 q 374 82 301 82 q 526 161 467 82 q 597 440 597 256 q 364 333 501 333 q 131 432 217 333 q 53 650 53 521 q 135 881 53 786 q 383 986 226 986 q 660 842 567 986 q 739 525 739 719 m 386 449 q 535 514 479 449 q 585 658 585 574 q 535 806 585 744 q 386 874 479 874 q 240 810 292 874 q 188 658 188 746 q 236 514 188 572 q 386 449 290 449 z "}," ":{"ha":375,"x_min":0,"x_max":0,"o":""},"!":{"ha":236,"x_min":0,"x_max":139,"o":"m 139 685 q 117 410 139 629 q 106 244 106 300 l 33 244 q 17 465 33 314 q 0 685 0 617 l 0 1013 l 139 1013 l 139 685 m 139 0 l 0 0 l 0 151 l 139 151 l 139 0 z "},"\"":{"ha":396,"x_min":0,"x_max":299,"o":"m 299 606 l 203 606 l 203 988 l 299 988 l 299 606 m 96 606 l 0 606 l 0 988 l 96 988 l 96 606 z "},"#":{"ha":1061,"x_min":0,"x_max":964,"o":"m 964 690 l 928 590 l 719 590 l 656 410 l 876 410 l 840 310 l 618 310 l 508 -3 l 394 -3 l 506 310 l 329 310 l 215 -3 l 103 -3 l 213 310 l 0 310 l 36 410 l 249 410 l 313 590 l 86 590 l 121 690 l 349 690 l 460 1006 l 574 1006 l 464 690 l 642 690 l 751 1006 l 865 1006 l 756 690 l 964 690 m 607 590 l 425 590 l 363 410 l 543 410 l 607 590 z "},"$":{"ha":793,"x_min":0,"x_max":700,"o":"m 664 718 l 542 718 q 490 826 531 786 q 381 872 450 865 l 381 551 q 620 447 540 522 q 700 242 700 371 q 618 46 700 117 q 381 -25 536 -25 l 381 -151 l 307 -151 l 307 -25 q 81 62 163 -25 q 0 297 0 149 l 124 297 q 169 147 124 204 q 307 81 215 89 l 307 442 q 81 536 149 469 q 13 725 13 603 q 97 910 13 839 q 307 982 181 982 l 307 1076 l 381 1076 l 381 982 q 574 918 494 982 q 664 718 664 846 m 307 565 l 307 872 q 188 832 233 872 q 142 725 142 792 q 180 619 142 657 q 307 565 218 581 m 381 76 q 563 238 563 97 q 517 362 563 314 q 381 424 472 410 l 381 76 z "},"%":{"ha":1186,"x_min":-3,"x_max":1089,"o":"m 846 0 q 664 76 732 0 q 603 244 603 146 q 663 413 603 344 q 846 489 729 489 q 1028 413 960 489 q 1089 244 1089 343 q 1029 76 1089 144 q 846 0 963 0 m 844 103 q 945 144 910 103 q 981 243 981 185 q 947 340 981 301 q 844 385 910 385 q 745 342 782 385 q 708 243 708 300 q 742 147 708 186 q 844 103 781 103 m 889 986 l 285 -26 l 200 -26 l 804 986 l 889 986 m 242 468 q 58 546 126 468 q -3 715 -3 615 q 57 882 -3 814 q 239 958 125 958 q 422 882 354 958 q 483 713 483 814 q 424 544 483 613 q 242 468 357 468 m 242 856 q 138 813 175 856 q 100 711 100 769 q 136 613 100 654 q 240 572 172 572 q 344 615 307 572 q 382 714 382 657 q 347 811 382 772 q 242 856 308 856 z "},"&":{"ha":992,"x_min":-3,"x_max":894,"o":"m 894 0 l 725 0 l 625 124 q 472 -1 554 40 q 307 -42 390 -42 q 169 -8 232 -42 q 63 92 106 26 q 15 187 32 139 q -3 276 -3 235 q 56 433 -3 358 q 249 582 115 508 q 171 689 197 640 q 138 817 138 751 q 215 985 138 922 q 385 1040 285 1040 q 549 988 483 1040 q 622 824 622 928 q 564 667 622 739 q 432 557 517 608 l 622 326 q 650 407 640 361 q 664 493 654 426 l 782 493 q 704 229 782 353 l 894 0 m 504 818 q 469 908 504 876 q 385 939 433 939 q 294 907 332 939 q 256 818 256 875 q 290 714 256 767 q 364 628 314 678 q 478 729 447 682 q 504 818 504 771 m 557 210 l 315 500 q 179 396 224 450 q 135 283 135 342 q 147 222 135 253 q 183 158 158 192 q 333 79 242 79 q 557 210 449 79 z "},"'":{"ha":236,"x_min":0,"x_max":139,"o":"m 139 851 q 102 738 139 785 q 0 671 65 692 l 0 735 q 60 788 43 742 q 72 872 72 821 l 0 872 l 0 1013 l 139 1013 l 139 851 z "},"(":{"ha":415,"x_min":0,"x_max":318,"o":"m 318 -290 l 231 -290 q 61 24 122 -143 q 0 365 0 190 q 63 713 0 540 q 231 1024 119 869 l 318 1024 q 175 706 219 853 q 125 360 125 542 q 176 22 125 188 q 318 -290 224 -128 z "},")":{"ha":415,"x_min":0,"x_max":318,"o":"m 318 365 q 258 25 318 192 q 88 -290 197 -142 l 0 -290 q 140 21 93 -129 q 193 360 193 189 q 142 704 193 538 q 0 1024 97 850 l 88 1024 q 258 706 197 871 q 318 365 318 542 z "},"*":{"ha":792,"x_min":117,"x_max":675,"o":"m 675 768 l 476 714 l 611 544 l 519 478 l 396 653 l 275 481 l 179 544 l 315 714 l 117 767 l 154 876 l 343 813 l 343 1013 l 447 1013 l 447 813 l 636 875 l 675 768 z "},"+":{"ha":792,"x_min":24,"x_max":768,"o":"m 768 372 l 444 372 l 444 0 l 347 0 l 347 372 l 24 372 l 24 468 l 346 468 l 346 840 l 443 840 l 443 468 l 768 468 l 768 372 z "},",":{"ha":239,"x_min":0,"x_max":142,"o":"m 142 -12 q 105 -133 142 -83 q 0 -207 68 -183 l 0 -139 q 57 -83 40 -125 q 69 0 69 -51 l 0 0 l 0 151 l 142 151 l 142 -12 z "},"-":{"ha":478,"x_min":10,"x_max":351,"o":"m 351 317 l 10 317 l 10 428 l 351 428 l 351 317 z "},".":{"ha":239,"x_min":0,"x_max":142,"o":"m 142 0 l 0 0 l 0 151 l 142 151 l 142 0 z "},"/":{"ha":792,"x_min":183,"x_max":608,"o":"m 608 1042 l 267 -129 l 183 -129 l 521 1042 l 608 1042 z "},":":{"ha":239,"x_min":0,"x_max":142,"o":"m 142 585 l 0 585 l 0 738 l 142 738 l 142 585 m 142 0 l 0 0 l 0 151 l 142 151 l 142 0 z "},";":{"ha":239,"x_min":0,"x_max":142,"o":"m 142 585 l 0 585 l 0 738 l 142 738 l 142 585 m 142 -12 q 105 -133 142 -83 q 0 -207 68 -183 l 0 -139 q 58 -83 43 -124 q 68 0 68 -57 l 0 0 l 0 151 l 142 151 l 142 -12 z "},"<":{"ha":792,"x_min":18,"x_max":774,"o":"m 774 42 l 18 376 l 18 465 l 774 799 l 774 692 l 160 421 l 774 150 l 774 42 z "},"=":{"ha":792,"x_min":10,"x_max":782,"o":"m 782 510 l 10 510 l 10 606 l 782 606 l 782 510 m 782 235 l 10 235 l 10 332 l 782 332 l 782 235 z "},">":{"ha":792,"x_min":18,"x_max":774,"o":"m 774 376 l 18 42 l 18 150 l 631 421 l 18 692 l 18 799 l 774 465 l 774 376 z "},"?":{"ha":704,"x_min":0,"x_max":607,"o":"m 607 778 q 543 600 607 675 q 422 475 482 538 q 357 272 357 392 l 236 272 q 297 488 236 396 q 411 619 299 490 q 474 763 474 692 q 422 886 474 839 q 301 933 371 933 q 179 881 228 933 q 124 707 124 819 l 0 707 q 94 964 0 872 q 303 1044 178 1044 q 511 974 424 1044 q 607 778 607 896 m 369 0 l 231 0 l 231 151 l 369 151 l 369 0 z "},"@":{"ha":1357,"x_min":0,"x_max":1260,"o":"m 1099 -46 q 877 -160 1001 -118 q 633 -203 753 -203 q 156 -29 328 -203 q 0 361 0 128 q 176 803 0 617 q 688 1008 372 1008 q 1124 854 969 1008 q 1260 517 1260 718 q 1156 215 1260 340 q 868 81 1044 81 q 772 106 801 81 q 738 201 738 135 q 647 113 700 144 q 528 82 594 82 q 367 147 421 82 q 314 313 314 213 q 401 565 314 453 q 639 690 499 690 q 810 589 760 690 l 849 668 l 938 668 q 878 440 900 532 q 833 225 833 267 q 853 181 833 197 q 903 165 874 165 q 1088 271 1013 165 q 1158 511 1158 371 q 1051 793 1158 681 q 688 925 925 925 q 249 747 415 925 q 97 361 97 586 q 226 26 97 160 q 628 -122 371 -122 q 857 -88 738 -122 q 1061 7 976 -54 l 1099 -46 m 786 489 q 739 581 778 546 q 643 615 700 615 q 483 518 549 615 q 425 322 425 431 q 458 203 425 250 q 553 156 490 156 q 722 274 665 156 q 786 489 739 310 z "},"A":{"ha":1008,"x_min":0,"x_max":907,"o":"m 907 0 l 757 0 l 650 303 l 251 303 l 143 0 l 0 0 l 376 1013 l 529 1013 l 907 0 m 610 421 l 453 867 l 293 421 l 610 421 z "},"B":{"ha":876,"x_min":0,"x_max":778,"o":"m 581 546 q 724 469 671 535 q 778 311 778 403 q 674 83 778 171 q 432 0 575 0 l 0 0 l 0 1013 l 411 1013 q 629 957 542 1013 q 732 768 732 892 q 691 633 732 693 q 581 546 650 572 m 393 899 l 139 899 l 139 588 l 379 588 q 521 624 463 588 q 592 744 592 667 q 531 859 592 819 q 393 899 471 899 m 419 124 q 567 169 504 124 q 635 303 635 219 q 560 436 635 389 q 403 476 494 476 l 139 476 l 139 124 l 419 124 z "},"C":{"ha":944,"x_min":0,"x_max":886,"o":"m 886 379 q 760 88 886 201 q 456 -26 635 -26 q 113 136 236 -26 q 0 510 0 283 q 118 883 0 738 q 469 1042 246 1042 q 749 956 631 1042 q 879 708 879 860 l 746 708 q 649 863 725 806 q 474 921 574 921 q 219 792 313 921 q 136 510 136 676 q 218 229 136 344 q 471 99 311 99 q 672 179 592 99 q 753 379 753 260 l 886 379 z "},"D":{"ha":935,"x_min":0,"x_max":828,"o":"m 389 1013 q 714 867 593 1013 q 828 521 828 729 q 713 161 828 310 q 382 0 588 0 l 0 0 l 0 1013 l 389 1013 m 376 124 q 607 247 524 124 q 681 510 681 356 q 607 771 681 663 q 376 896 522 896 l 139 896 l 139 124 l 376 124 z "},"E":{"ha":789,"x_min":0,"x_max":736,"o":"m 736 0 l 0 0 l 0 1013 l 725 1013 l 725 889 l 139 889 l 139 585 l 678 585 l 678 467 l 139 467 l 139 125 l 736 125 l 736 0 z "},"F":{"ha":717,"x_min":0,"x_max":683,"o":"m 683 888 l 140 888 l 140 583 l 614 583 l 614 458 l 140 458 l 140 0 l 0 0 l 0 1013 l 683 1013 l 683 888 z "},"G":{"ha":1011,"x_min":0,"x_max":921,"o":"m 921 0 l 832 0 l 801 136 q 655 15 742 58 q 471 -28 568 -28 q 126 133 260 -28 q 0 500 0 285 q 125 882 0 732 q 486 1043 260 1043 q 764 957 647 1043 q 906 708 890 864 l 772 708 q 668 867 747 807 q 486 926 589 926 q 228 796 322 926 q 142 508 142 678 q 228 225 142 343 q 483 94 324 94 q 713 196 625 94 q 796 435 796 292 l 478 435 l 478 549 l 921 549 l 921 0 z "},"H":{"ha":915,"x_min":0,"x_max":803,"o":"m 803 0 l 667 0 l 667 475 l 140 475 l 140 0 l 0 0 l 0 1013 l 140 1013 l 140 599 l 667 599 l 667 1013 l 803 1013 l 803 0 z "},"I":{"ha":293,"x_min":42,"x_max":181,"o":"m 181 0 l 42 0 l 42 1013 l 181 1013 l 181 0 z "},"J":{"ha":699,"x_min":0,"x_max":588,"o":"m 588 279 q 288 -26 588 -26 q 58 74 126 -26 q 0 328 0 158 l 133 328 q 161 172 133 228 q 289 96 199 96 q 426 171 392 96 q 449 336 449 219 l 449 1013 l 588 1013 l 588 279 z "},"K":{"ha":906,"x_min":0,"x_max":819,"o":"m 819 0 l 650 0 l 294 510 l 139 357 l 139 0 l 0 0 l 0 1013 l 139 1013 l 139 526 l 626 1013 l 810 1013 l 396 600 l 819 0 z "},"L":{"ha":696,"x_min":0,"x_max":646,"o":"m 646 0 l 0 0 l 0 1013 l 140 1013 l 140 126 l 646 126 l 646 0 z "},"M":{"ha":1067,"x_min":0,"x_max":954,"o":"m 954 0 l 819 0 l 819 868 l 538 0 l 406 0 l 128 865 l 128 0 l 0 0 l 0 1013 l 200 1013 l 472 158 l 758 1013 l 954 1013 l 954 0 z "},"N":{"ha":914,"x_min":0,"x_max":801,"o":"m 801 0 l 651 0 l 131 822 l 131 0 l 0 0 l 0 1013 l 151 1013 l 671 192 l 671 1013 l 801 1013 l 801 0 z "},"O":{"ha":1057,"x_min":0,"x_max":958,"o":"m 486 1042 q 835 883 703 1042 q 958 513 958 735 q 835 136 958 288 q 482 -26 703 -26 q 126 131 261 -26 q 0 504 0 279 q 128 881 0 729 q 486 1042 264 1042 m 481 97 q 732 225 639 97 q 815 504 815 340 q 733 783 815 669 q 481 913 640 913 q 226 785 321 913 q 142 504 142 671 q 226 224 142 339 q 481 97 319 97 z "},"P":{"ha":806,"x_min":0,"x_max":726,"o":"m 425 1013 q 641 931 556 1013 q 726 719 726 850 q 638 507 726 588 q 414 426 549 426 l 140 426 l 140 0 l 0 0 l 0 1013 l 425 1013 m 379 889 l 140 889 l 140 549 l 372 549 q 522 590 460 549 q 593 721 593 638 q 528 845 593 801 q 379 889 464 889 z "},"Q":{"ha":1072,"x_min":0,"x_max":968,"o":"m 954 6 l 888 -79 l 744 36 q 622 -12 688 3 q 483 -26 557 -26 q 128 131 263 -26 q 0 504 0 279 q 128 881 0 729 q 485 1042 263 1042 q 842 885 708 1042 q 968 508 968 736 q 934 294 968 399 q 833 106 900 189 l 954 6 m 724 192 q 803 331 778 249 q 828 500 828 413 q 744 790 828 674 q 483 922 650 922 q 228 792 322 922 q 142 506 142 674 q 228 221 142 338 q 488 90 324 90 q 633 124 567 90 l 521 215 l 588 301 l 724 192 z "},"R":{"ha":907,"x_min":0,"x_max":782,"o":"m 782 0 l 624 0 q 588 243 590 53 q 408 433 586 433 l 139 433 l 139 0 l 0 0 l 0 1013 l 396 1013 q 636 946 539 1013 q 749 732 749 868 q 711 597 749 660 q 608 503 674 535 q 718 371 696 475 q 729 208 722 353 q 782 26 736 63 l 782 0 m 374 551 q 533 594 465 551 q 614 732 614 646 q 532 860 614 815 q 374 896 465 896 l 138 896 l 138 551 l 374 551 z "},"S":{"ha":890,"x_min":0,"x_max":788,"o":"m 788 292 q 663 54 788 144 q 397 -26 550 -26 q 117 68 226 -26 q 0 338 0 168 l 131 338 q 200 153 131 221 q 385 85 269 85 q 557 129 479 85 q 650 271 650 183 q 490 429 650 379 q 194 514 342 471 q 33 740 33 585 q 143 965 33 882 q 389 1042 243 1042 q 644 958 543 1042 q 756 717 756 868 l 625 717 q 561 875 625 817 q 396 933 497 933 q 243 892 310 933 q 164 760 164 842 q 325 610 164 657 q 625 526 475 568 q 788 292 788 454 z "},"T":{"ha":835,"x_min":0,"x_max":778,"o":"m 778 893 l 458 893 l 458 0 l 319 0 l 319 892 l 0 892 l 0 1013 l 778 1013 l 778 893 z "},"U":{"ha":904,"x_min":0,"x_max":796,"o":"m 796 393 q 681 94 796 213 q 386 -25 567 -25 q 101 96 208 -25 q 0 393 0 211 l 0 1013 l 138 1013 l 138 392 q 204 192 138 271 q 394 107 276 107 q 586 192 513 107 q 656 392 656 271 l 656 1013 l 796 1013 l 796 393 z "},"V":{"ha":940,"x_min":0,"x_max":863,"o":"m 863 1013 l 506 0 l 361 0 l 0 1013 l 143 1013 l 435 165 l 718 1013 l 863 1013 z "},"W":{"ha":1351,"x_min":0,"x_max":1264,"o":"m 1264 1013 l 996 0 l 860 0 l 628 836 l 406 0 l 265 0 l 0 1013 l 136 1013 l 343 203 l 557 1013 l 701 1013 l 922 208 l 1133 1013 l 1264 1013 z "},"X":{"ha":940,"x_min":0,"x_max":854,"o":"m 854 0 l 683 0 l 424 410 l 167 0 l 0 0 l 347 519 l 18 1013 l 186 1013 l 428 638 l 675 1013 l 836 1013 l 504 521 l 854 0 z "},"Y":{"ha":886,"x_min":0,"x_max":819,"o":"m 819 1013 l 482 417 l 482 0 l 342 0 l 342 417 l 0 1013 l 140 1013 l 411 533 l 679 1013 l 819 1013 z "},"Z":{"ha":849,"x_min":0,"x_max":779,"o":"m 779 0 l 0 0 l 0 114 l 621 896 l 40 896 l 40 1013 l 779 1013 l 779 888 l 171 124 l 779 124 l 779 0 z "},"[":{"ha":371,"x_min":0,"x_max":274,"o":"m 274 -281 l 0 -281 l 0 1013 l 274 1013 l 274 919 l 124 919 l 124 -186 l 274 -186 l 274 -281 z "},"\\":{"ha":522,"x_min":0,"x_max":425,"o":"m 425 -129 l 338 -129 l 0 1042 l 83 1042 l 425 -129 z "},"]":{"ha":372,"x_min":0,"x_max":275,"o":"m 275 -281 l 0 -281 l 0 -186 l 151 -186 l 151 919 l 0 919 l 0 1013 l 275 1013 l 275 -281 z "},"^":{"ha":792,"x_min":193,"x_max":599,"o":"m 599 772 l 515 772 l 396 931 l 278 772 l 193 772 l 326 1013 l 463 1013 l 599 772 z "},"_":{"ha":803,"x_min":0,"x_max":706,"o":"m 706 -333 l 0 -333 l 0 -233 l 706 -233 l 706 -333 z "},"`":{"ha":236,"x_min":0,"x_max":139,"o":"m 139 699 l 0 699 l 0 861 q 36 975 0 929 q 139 1042 72 1021 l 139 978 q 83 931 96 969 q 69 839 69 893 l 139 839 l 139 699 z "},"a":{"ha":794,"x_min":0,"x_max":699,"o":"m 699 0 q 661 -12 679 -7 q 615 -17 643 -17 q 536 13 564 -17 q 500 96 508 42 q 384 6 456 38 q 236 -25 313 -25 q 65 32 131 -25 q 0 194 0 89 q 118 390 0 335 q 328 436 181 421 q 488 483 476 451 q 494 524 494 504 q 442 619 494 585 q 325 654 389 654 q 209 617 257 654 q 153 514 161 581 l 33 514 q 124 706 33 633 q 332 772 207 772 q 528 713 449 772 q 617 532 617 646 l 617 164 q 624 108 617 126 q 664 90 632 90 l 699 94 l 699 0 m 490 263 l 490 372 q 272 329 350 347 q 128 201 128 294 q 167 114 128 144 q 264 83 206 83 q 414 131 346 83 q 490 263 490 183 z "},"b":{"ha":783,"x_min":0,"x_max":685,"o":"m 685 372 q 597 100 685 214 q 347 -25 501 -25 q 219 6 278 -25 q 121 93 161 36 l 121 0 l 0 0 l 0 1013 l 121 1013 l 121 635 q 215 724 157 693 q 342 754 272 754 q 592 638 493 754 q 685 372 685 526 m 554 357 q 500 551 554 471 q 329 644 438 644 q 163 557 224 644 q 108 369 108 479 q 161 176 108 257 q 331 83 222 83 q 499 169 436 83 q 554 357 554 246 z "},"c":{"ha":775,"x_min":1,"x_max":701,"o":"m 701 264 q 585 53 682 133 q 354 -26 488 -26 q 92 92 189 -26 q 1 371 1 201 q 93 646 1 538 q 354 761 190 761 q 573 688 479 761 q 690 493 667 615 l 557 493 q 488 606 546 563 q 357 650 429 650 q 188 564 247 650 q 135 372 135 488 q 189 179 135 258 q 360 88 251 88 q 493 136 438 88 q 567 264 549 185 l 701 264 z "},"d":{"ha":796,"x_min":0,"x_max":683,"o":"m 683 0 l 564 0 l 564 93 q 456 7 517 39 q 328 -25 396 -25 q 88 100 182 -25 q 0 365 0 215 q 90 639 0 525 q 343 763 188 763 q 564 647 486 763 l 564 1013 l 683 1013 l 683 0 m 582 374 q 529 563 582 485 q 361 653 468 653 q 190 561 253 653 q 135 365 135 479 q 189 175 135 254 q 358 85 251 85 q 529 178 468 85 q 582 374 582 258 z "},"e":{"ha":813,"x_min":0,"x_max":714,"o":"m 714 326 l 140 326 q 201 157 140 228 q 360 86 261 86 q 489 131 432 86 q 561 246 546 175 l 697 246 q 578 49 671 124 q 358 -26 485 -26 q 98 85 196 -26 q 0 364 0 197 q 94 643 0 529 q 358 765 196 765 q 626 628 529 765 q 714 326 714 504 m 576 429 q 508 583 565 522 q 356 650 446 650 q 207 583 267 650 q 140 429 153 522 l 576 429 z "},"f":{"ha":472,"x_min":0,"x_max":378,"o":"m 378 638 l 246 638 l 246 0 l 121 0 l 121 638 l 0 638 l 0 738 l 121 738 q 138 935 121 888 q 290 1028 171 1028 q 320 1027 306 1028 q 378 1021 335 1026 l 378 908 q 324 918 346 918 q 257 871 274 918 q 246 781 246 840 l 246 738 l 378 738 l 378 638 z "},"g":{"ha":838,"x_min":0,"x_max":686,"o":"m 686 35 q 587 -213 686 -121 q 332 -306 488 -306 q 132 -253 217 -306 q 32 -85 32 -190 l 156 -85 q 229 -175 167 -139 q 346 -207 285 -207 q 515 -110 456 -207 q 565 89 565 -28 q 463 6 522 36 q 336 -24 403 -24 q 89 100 185 -24 q 0 371 0 215 q 88 635 0 522 q 331 758 183 758 q 457 729 399 758 q 564 644 515 700 l 564 738 l 686 738 l 686 35 m 582 368 q 529 561 582 482 q 358 653 468 653 q 189 563 250 653 q 135 369 135 483 q 189 176 135 256 q 361 85 251 85 q 529 176 468 85 q 582 368 582 256 z "},"h":{"ha":724,"x_min":0,"x_max":615,"o":"m 615 472 l 615 0 l 490 0 l 490 454 q 457 590 490 536 q 339 654 417 654 q 187 588 251 654 q 122 436 122 522 l 122 0 l 0 0 l 0 1013 l 122 1013 l 122 633 q 219 727 150 694 q 363 760 288 760 q 553 676 485 760 q 615 472 615 600 z "},"i":{"ha":275,"x_min":14,"x_max":136,"o":"m 136 872 l 14 872 l 14 1013 l 136 1013 l 136 872 m 136 0 l 14 0 l 14 738 l 136 738 l 136 0 z "},"j":{"ha":349,"x_min":-78,"x_max":167,"o":"m 167 871 l 42 871 l 42 1013 l 167 1013 l 167 871 m 167 -81 q 122 -231 167 -185 q -26 -278 76 -278 l -78 -276 l -78 -162 l -42 -162 q 26 -142 11 -162 q 42 -64 42 -121 l 42 738 l 167 738 l 167 -81 z "},"k":{"ha":697,"x_min":0,"x_max":613,"o":"m 613 739 l 339 465 l 608 0 l 469 0 l 251 382 l 121 251 l 121 0 l 0 0 l 0 1013 l 121 1013 l 121 403 l 457 739 l 613 739 z "},"l":{"ha":279,"x_min":42,"x_max":167,"o":"m 167 0 l 42 0 l 42 1013 l 167 1013 l 167 0 z "},"m":{"ha":1128,"x_min":0,"x_max":1019,"o":"m 1019 0 l 897 0 l 897 454 q 861 592 897 536 q 740 660 817 660 q 614 586 660 660 q 574 436 574 522 l 574 0 l 447 0 l 447 454 q 413 590 447 535 q 294 656 372 656 q 165 585 214 656 q 122 436 122 521 l 122 0 l 0 0 l 0 739 l 117 739 l 117 640 q 202 729 150 697 q 317 761 254 761 q 438 728 382 761 q 526 640 494 696 q 622 731 560 699 q 754 763 683 763 q 944 694 868 763 q 1019 513 1019 625 l 1019 0 z "},"n":{"ha":724,"x_min":0,"x_max":615,"o":"m 615 464 l 615 0 l 490 0 l 490 454 q 454 592 490 538 q 332 656 411 656 q 178 585 240 656 q 117 421 117 514 l 117 0 l 0 0 l 0 739 l 117 739 l 117 631 q 218 728 150 693 q 360 764 286 764 q 553 675 485 764 q 615 464 615 593 z "},"o":{"ha":821,"x_min":0,"x_max":713,"o":"m 357 -25 q 94 92 194 -25 q 0 368 0 203 q 93 643 0 533 q 357 761 193 761 q 618 644 518 761 q 713 368 713 533 q 619 92 713 201 q 357 -25 521 -25 m 357 85 q 528 175 465 85 q 583 369 583 256 q 529 563 583 485 q 357 651 467 651 q 189 561 250 651 q 135 369 135 482 q 188 178 135 257 q 357 85 250 85 z "},"p":{"ha":786,"x_min":0,"x_max":685,"o":"m 685 364 q 599 96 685 206 q 350 -24 504 -24 q 121 89 206 -24 l 121 -278 l 0 -278 l 0 739 l 121 739 l 121 633 q 220 726 160 692 q 351 761 281 761 q 599 636 504 761 q 685 364 685 522 m 557 371 q 501 561 557 482 q 331 651 438 651 q 163 560 224 651 q 108 367 108 479 q 163 176 108 254 q 333 86 225 86 q 503 178 442 86 q 557 371 557 258 z "},"q":{"ha":876,"x_min":0,"x_max":683,"o":"m 683 -278 l 564 -278 l 564 97 q 474 8 533 39 q 346 -24 415 -24 q 92 93 189 -24 q 0 364 0 203 q 88 635 0 522 q 338 760 185 760 q 466 728 408 760 q 564 638 524 696 l 564 738 l 683 738 l 683 -278 m 582 375 q 528 564 582 488 q 358 651 467 651 q 190 565 253 651 q 135 376 135 488 q 189 179 135 261 q 361 83 251 83 q 531 179 469 83 q 582 375 582 260 z "},"r":{"ha":432,"x_min":0,"x_max":356,"o":"m 356 621 l 343 621 q 179 569 236 621 q 122 411 122 518 l 122 0 l 0 0 l 0 738 l 117 738 l 117 604 q 204 719 146 686 q 356 753 263 753 l 356 621 z "},"s":{"ha":697,"x_min":0,"x_max":604,"o":"m 604 217 q 501 36 604 104 q 293 -24 411 -24 q 86 43 167 -24 q 0 238 0 114 l 121 238 q 175 122 121 164 q 300 85 224 85 q 415 113 364 85 q 479 207 479 147 q 361 310 479 276 q 140 372 142 371 q 21 544 21 426 q 111 708 21 647 q 299 761 190 761 q 493 706 414 761 q 583 532 583 643 l 463 532 q 413 626 463 594 q 299 657 364 657 q 200 636 243 657 q 143 558 143 608 q 263 454 143 486 q 485 394 479 397 q 604 217 604 342 z "},"t":{"ha":458,"x_min":0,"x_max":367,"o":"m 367 0 q 312 -6 339 -3 q 263 -8 285 -8 q 146 28 183 -8 q 108 143 108 64 l 108 638 l 0 638 l 0 738 l 108 738 l 108 944 l 232 944 l 232 738 l 367 738 l 367 638 l 232 638 l 232 185 q 248 121 232 140 q 307 101 264 101 q 345 104 331 101 q 367 107 360 107 l 367 0 z "},"u":{"ha":729,"x_min":0,"x_max":617,"o":"m 617 0 l 499 0 l 499 110 q 391 10 460 46 q 246 -25 322 -25 q 61 58 128 -25 q 0 258 0 136 l 0 738 l 125 738 l 125 285 q 157 149 125 203 q 274 82 197 82 q 433 165 369 82 q 493 340 493 243 l 493 738 l 617 738 l 617 0 z "},"v":{"ha":761,"x_min":0,"x_max":675,"o":"m 675 738 l 404 0 l 272 0 l 0 738 l 133 738 l 340 147 l 542 738 l 675 738 z "},"w":{"ha":1100,"x_min":0,"x_max":1010,"o":"m 1010 738 l 783 0 l 658 0 l 501 567 l 346 0 l 222 0 l 0 738 l 131 738 l 285 174 l 432 738 l 576 738 l 721 174 l 881 738 l 1010 738 z "},"x":{"ha":764,"x_min":0,"x_max":675,"o":"m 675 0 l 526 0 l 332 286 l 144 0 l 0 0 l 257 379 l 13 738 l 158 738 l 338 474 l 517 738 l 661 738 l 413 381 l 675 0 z "},"y":{"ha":771,"x_min":0,"x_max":685,"o":"m 685 738 l 389 -83 q 311 -217 357 -168 q 174 -279 253 -279 q 97 -267 133 -279 l 97 -149 q 133 -156 110 -151 q 168 -160 156 -160 q 240 -114 214 -160 q 275 -26 249 -99 l 0 738 l 138 738 l 342 140 l 549 738 l 685 738 z "},"z":{"ha":697,"x_min":0,"x_max":614,"o":"m 614 0 l 0 0 l 0 100 l 433 629 l 21 629 l 21 738 l 594 738 l 594 636 l 164 110 l 614 110 l 614 0 z "},"{":{"ha":578,"x_min":0,"x_max":481,"o":"m 481 -286 q 238 -214 304 -286 q 188 -46 188 -160 q 193 49 188 -15 q 199 142 199 113 q 163 264 199 225 q 0 314 117 314 l 0 417 q 165 471 119 417 q 201 606 201 514 q 200 665 201 644 q 193 772 193 769 q 242 942 193 888 q 481 1015 308 1015 l 481 915 q 336 867 375 915 q 306 743 306 829 q 310 663 306 718 q 314 578 314 607 q 289 453 314 500 q 176 365 257 392 q 292 275 260 338 q 317 143 317 226 q 315 85 317 107 q 310 -11 310 -6 q 339 -132 310 -94 q 481 -182 378 -182 l 481 -286 z "},"|":{"ha":792,"x_min":343,"x_max":449,"o":"m 449 463 l 343 463 l 343 986 l 449 986 l 449 463 m 449 -242 l 343 -242 l 343 281 l 449 281 l 449 -242 z "},"}":{"ha":578,"x_min":0,"x_max":481,"o":"m 481 314 q 318 263 364 314 q 282 136 282 222 q 285 65 282 97 q 294 -58 294 -49 q 243 -218 294 -167 q 0 -286 175 -286 l 0 -182 q 143 -131 106 -182 q 171 -3 171 -93 q 168 81 171 22 q 165 144 165 140 q 189 275 165 229 q 306 365 221 339 q 190 456 224 392 q 164 589 164 506 q 167 681 164 625 q 171 743 171 738 q 142 865 171 828 q 0 915 103 915 l 0 1015 q 243 943 176 1015 q 293 774 293 889 q 288 675 293 742 q 282 590 282 608 q 318 467 282 506 q 481 417 364 417 l 481 314 z "},"~":{"ha":931,"x_min":0,"x_max":833,"o":"m 833 958 q 779 754 833 832 q 594 665 717 665 q 403 761 503 665 q 240 857 303 857 q 132 796 167 857 q 104 665 104 746 l 0 665 q 54 868 0 790 q 238 958 117 958 q 430 862 332 958 q 594 765 528 765 q 704 828 671 765 q 729 958 729 875 l 833 958 z "},"ƒ":{"ha":513,"x_min":-46,"x_max":392,"o":"m 392 651 l 260 651 l 79 -279 l -46 -279 l 135 651 l 14 651 l 14 751 l 135 751 q 151 949 135 901 q 304 1042 185 1042 q 334 1041 319 1042 q 392 1035 349 1040 l 392 922 q 338 932 360 932 q 271 885 288 932 q 260 794 260 854 l 260 751 l 392 751 l 392 651 z "},"„":{"ha":467,"x_min":0,"x_max":364,"o":"m 142 -12 q 105 -133 142 -83 q 0 -207 68 -183 l 0 -139 q 57 -83 40 -125 q 69 0 69 -51 l 0 0 l 0 151 l 142 151 l 142 -12 m 364 -12 q 327 -133 364 -83 q 222 -207 290 -183 l 222 -139 q 279 -83 263 -125 q 292 0 292 -51 l 222 0 l 222 151 l 364 151 l 364 -12 z "},"…":{"ha":708,"x_min":0,"x_max":614,"o":"m 142 0 l 0 0 l 0 151 l 142 151 l 142 0 m 378 0 l 236 0 l 236 151 l 378 151 l 378 0 m 614 0 l 472 0 l 472 151 l 614 151 l 614 0 z "},"†":{"ha":835,"x_min":0,"x_max":778,"o":"m 458 804 l 778 804 l 778 682 l 458 682 l 458 0 l 319 0 l 319 682 l 0 683 l 0 804 l 319 804 l 319 1015 l 458 1014 l 458 804 z "},"‡":{"ha":835,"x_min":0,"x_max":778,"o":"m 458 238 l 458 0 l 319 0 l 319 236 l 0 236 l 0 360 l 319 360 l 319 682 l 0 683 l 0 804 l 319 804 l 319 1015 l 458 1014 l 458 804 l 778 804 l 778 682 l 458 682 l 458 360 l 778 360 l 778 238 l 458 238 z "},"‰":{"ha":1821,"x_min":-3,"x_max":1672,"o":"m 846 0 q 664 76 732 0 q 603 244 603 146 q 663 413 603 344 q 846 489 729 489 q 1028 413 960 489 q 1089 244 1089 343 q 1029 76 1089 144 q 846 0 963 0 m 844 103 q 945 144 910 103 q 981 243 981 185 q 947 340 981 301 q 844 385 910 385 q 745 342 782 385 q 708 243 708 300 q 742 147 708 186 q 844 103 781 103 m 889 986 l 285 -26 l 200 -26 l 804 986 l 889 986 m 242 468 q 58 546 126 468 q -3 715 -3 615 q 57 882 -3 814 q 239 958 125 958 q 422 882 354 958 q 483 713 483 814 q 424 544 483 613 q 242 468 357 468 m 242 856 q 138 813 175 856 q 100 711 100 769 q 136 613 100 654 q 240 572 172 572 q 344 615 307 572 q 382 714 382 657 q 347 811 382 772 q 242 856 308 856 m 1429 0 q 1247 76 1315 0 q 1186 244 1186 146 q 1246 413 1186 344 q 1429 489 1313 489 q 1611 413 1543 489 q 1672 244 1672 343 q 1613 76 1672 144 q 1429 0 1546 0 m 1428 103 q 1528 144 1493 103 q 1564 243 1564 185 q 1531 340 1564 301 q 1428 385 1493 385 q 1328 342 1365 385 q 1292 243 1292 300 q 1325 147 1292 186 q 1428 103 1364 103 z "},"‹":{"ha":792,"x_min":18,"x_max":774,"o":"m 774 42 l 18 376 l 18 465 l 774 799 l 774 692 l 160 421 l 774 150 l 774 42 z "},"‘":{"ha":236,"x_min":1,"x_max":140,"o":"m 140 669 l 1 669 l 1 831 q 38 944 1 897 q 140 1011 75 990 l 140 947 q 83 901 97 940 q 68 810 68 861 l 140 810 l 140 669 z "},"’":{"ha":236,"x_min":0,"x_max":139,"o":"m 139 851 q 102 738 139 785 q 0 671 65 692 l 0 735 q 60 788 43 742 q 72 872 72 821 l 0 872 l 0 1013 l 139 1013 l 139 851 z "},"“":{"ha":454,"x_min":1,"x_max":349,"o":"m 140 669 l 1 669 l 1 831 q 38 944 1 897 q 140 1011 75 990 l 140 947 q 83 901 97 940 q 68 810 68 861 l 140 810 l 140 669 m 349 669 l 210 669 l 210 831 q 247 944 210 897 q 349 1011 283 990 l 349 947 q 291 901 306 940 q 276 810 276 861 l 349 810 l 349 669 z "},"”":{"ha":454,"x_min":0,"x_max":347,"o":"m 139 851 q 102 738 139 785 q 0 671 65 692 l 0 735 q 60 788 43 742 q 72 872 72 821 l 0 872 l 0 1013 l 139 1013 l 139 851 m 347 851 q 310 738 347 785 q 208 671 274 692 l 208 735 q 268 788 251 742 q 281 872 281 821 l 208 872 l 208 1013 l 347 1013 l 347 851 z "},"•":{"ha":775,"x_min":0,"x_max":664,"o":"m 664 529 q 567 294 664 392 q 332 196 469 196 q 97 294 194 196 q 0 529 0 393 q 97 763 0 665 q 332 861 193 861 q 567 763 469 861 q 664 529 664 665 z "},"–":{"ha":803,"x_min":0,"x_max":706,"o":"m 706 335 l 0 335 l 0 411 l 706 411 l 706 335 z "},"—":{"ha":1039,"x_min":0,"x_max":942,"o":"m 942 335 l 0 335 l 0 411 l 942 411 l 942 335 z "},"™":{"ha":1000,"x_min":0,"x_max":893,"o":"m 389 951 l 229 951 l 229 503 l 160 503 l 160 949 l 0 949 l 0 1011 l 389 1011 l 389 951 m 893 503 l 826 503 l 826 939 l 685 503 l 619 503 l 481 938 l 481 503 l 417 503 l 417 1011 l 517 1011 l 653 582 l 796 1011 l 893 1011 l 893 503 z "},"›":{"ha":792,"x_min":18,"x_max":774,"o":"m 774 376 l 18 42 l 18 150 l 631 421 l 18 692 l 18 799 l 774 465 l 774 376 z "}," ":{"ha":853,"x_min":0,"x_max":0,"o":""},"£":{"ha":801,"x_min":0,"x_max":704,"o":"m 704 42 q 624 -10 664 6 q 543 -26 583 -26 q 360 15 501 -26 q 243 36 289 36 q 158 24 197 36 q 74 -21 119 11 l 6 76 q 125 196 90 150 q 175 332 175 263 q 147 443 175 383 l 0 443 l 0 513 l 108 513 q 43 735 43 624 q 121 929 43 854 q 358 1010 204 1010 q 579 936 488 1010 q 678 729 678 857 l 678 685 l 551 685 q 504 838 551 781 q 363 896 457 896 q 217 853 264 896 q 176 747 176 815 q 200 628 176 697 q 249 513 218 575 l 468 513 l 468 443 l 279 443 q 297 357 297 399 q 231 194 297 279 q 153 107 211 171 q 227 133 190 125 q 293 142 264 142 q 410 119 339 142 q 517 96 482 96 q 579 105 550 96 q 649 139 608 114 l 704 42 z "},"¤":{"ha":825,"x_min":40,"x_max":729,"o":"m 729 304 l 650 225 l 513 363 q 383 332 458 332 q 257 363 311 332 l 119 225 l 40 304 l 178 442 q 150 553 150 493 q 185 674 150 621 l 40 818 l 119 897 l 268 749 q 322 767 292 760 q 385 774 351 774 q 448 767 418 774 q 501 749 478 760 l 650 897 l 729 818 l 586 675 q 613 618 604 649 q 621 553 621 588 q 592 442 621 492 l 729 304 m 385 682 q 281 643 318 682 q 243 551 243 604 q 280 460 243 499 q 383 422 317 422 q 488 461 450 422 q 525 553 525 500 q 490 642 525 606 q 385 682 451 682 z "},"¥":{"ha":886,"x_min":0,"x_max":819,"o":"m 564 561 l 697 561 l 696 486 l 521 486 l 482 417 l 482 381 l 697 381 l 696 308 l 482 306 l 482 0 l 342 0 l 342 307 l 125 307 l 125 381 l 342 381 l 342 417 l 303 485 l 125 488 l 125 561 l 258 561 l 0 1013 l 140 1013 l 411 533 l 679 1013 l 819 1013 l 564 561 z "},"§":{"ha":690,"x_min":0,"x_max":593,"o":"m 593 425 q 555 312 593 369 q 467 233 517 254 q 538 83 538 172 q 460 -75 538 -12 q 289 -133 388 -133 q 116 -70 185 -133 q 47 96 47 -7 l 167 96 q 200 7 167 40 q 289 -26 233 -26 q 371 -6 332 -26 q 419 60 419 21 q 311 201 419 139 q 108 310 210 256 q 0 490 0 383 q 33 603 0 551 q 124 688 67 654 q 76 743 93 713 q 58 813 58 774 q 133 985 58 921 q 300 1043 201 1043 q 458 988 394 1043 q 529 814 529 925 l 411 814 q 370 908 404 878 q 289 939 336 939 q 213 911 246 939 q 179 842 179 883 q 286 721 179 779 q 485 613 481 615 q 593 425 593 535 m 467 410 q 356 544 467 474 q 196 631 228 613 q 146 588 163 610 q 124 525 124 558 q 239 388 124 463 q 399 299 369 315 q 448 346 429 317 q 467 410 467 375 z "},"¨":{"ha":232,"x_min":-110,"x_max":246,"o":"m 246 1046 l 118 1046 l 118 1189 l 246 1189 l 246 1046 m 18 1046 l -110 1046 l -110 1189 l 18 1189 l 18 1046 z "},"©":{"ha":1106,"x_min":-3,"x_max":1008,"o":"m 503 -7 q 124 151 264 -7 q -3 501 -3 294 q 124 851 -3 707 q 503 1011 264 1011 q 882 851 740 1011 q 1008 501 1008 708 q 883 151 1008 293 q 503 -7 744 -7 m 503 60 q 831 197 710 60 q 940 501 940 322 q 832 806 940 682 q 503 944 710 944 q 175 806 297 944 q 65 501 65 681 q 174 197 65 321 q 503 60 294 60 m 742 394 q 662 247 732 303 q 497 190 592 190 q 294 286 369 190 q 228 497 228 371 q 296 714 228 625 q 500 813 371 813 q 657 762 589 813 q 733 625 725 711 l 635 625 q 590 704 629 674 q 499 735 550 735 q 377 666 421 735 q 333 504 333 597 q 374 340 333 408 q 490 272 415 272 q 590 305 550 272 q 639 394 629 338 l 742 394 z "},"ª":{"ha":397,"x_min":0,"x_max":350,"o":"m 350 625 q 308 617 329 617 q 269 631 283 617 q 250 674 254 646 q 193 628 228 644 q 118 613 158 613 q 33 641 65 613 q 0 722 0 669 q 72 826 0 800 q 244 867 158 846 l 247 888 q 221 935 247 917 q 163 953 194 953 q 105 934 129 953 q 76 882 81 915 l 17 882 q 60 976 17 942 q 167 1011 104 1011 q 267 980 225 1011 q 308 892 308 949 l 308 707 q 312 680 308 689 q 332 671 315 671 l 350 672 l 350 625 m 246 757 l 246 811 q 136 790 175 799 q 64 726 64 774 q 83 682 64 697 q 132 667 103 667 q 207 690 174 667 q 246 757 246 718 z "},"«":{"ha":604,"x_min":0,"x_max":507,"o":"m 507 138 l 283 303 l 283 440 l 507 608 l 507 486 l 360 372 l 507 257 l 507 138 m 222 138 l 0 303 l 0 440 l 222 608 l 222 486 l 75 372 l 222 257 l 222 138 z "},"¬":{"ha":803,"x_min":0,"x_max":706,"o":"m 706 411 l 706 158 l 629 158 l 629 335 l 0 335 l 0 411 l 706 411 z "},"®":{"ha":1106,"x_min":-3,"x_max":1008,"o":"m 504 532 q 615 563 567 532 q 672 658 672 599 q 615 747 672 717 q 504 772 569 772 l 339 772 l 339 532 l 504 532 m 503 -7 q 124 151 264 -7 q -3 501 -3 294 q 124 851 -3 707 q 503 1011 264 1011 q 882 851 740 1011 q 1008 501 1008 708 q 883 151 1008 293 q 503 -7 744 -7 m 503 60 q 831 197 710 60 q 940 501 940 322 q 832 806 940 682 q 503 944 710 944 q 175 806 297 944 q 65 501 65 681 q 174 197 65 321 q 503 60 294 60 m 789 146 l 679 146 q 654 316 656 183 q 528 449 653 449 l 339 449 l 339 146 l 242 146 l 242 854 l 519 854 q 689 808 622 854 q 767 658 767 756 q 740 563 767 607 q 668 497 714 519 q 752 331 747 472 q 789 164 757 190 l 789 146 z "},"¯":{"ha":938,"x_min":0,"x_max":942,"o":"m 942 1033 l 0 1033 l 0 1110 l 942 1110 l 942 1033 z "},"°":{"ha":444,"x_min":0,"x_max":347,"o":"m 174 803 q 43 857 92 803 q 0 978 0 906 q 45 1101 0 1050 q 174 1153 90 1153 q 304 1099 256 1153 q 347 978 347 1050 q 304 857 347 906 q 174 803 257 803 m 174 885 q 239 911 215 885 q 263 974 263 938 q 240 1038 263 1013 q 174 1064 218 1064 q 108 1038 132 1064 q 85 974 85 1011 q 108 911 85 938 q 174 885 132 885 z "},"±":{"ha":792,"x_min":11,"x_max":781,"o":"m 781 490 l 446 490 l 446 256 l 349 256 l 349 490 l 11 490 l 11 586 l 347 586 l 347 819 l 444 819 l 444 586 l 781 586 l 781 490 m 781 21 l 11 21 l 11 115 l 781 115 l 781 21 z "},"´":{"ha":251,"x_min":0,"x_max":96,"o":"m 96 606 l 0 606 l 0 988 l 96 988 l 96 606 z "},"µ":{"ha":747,"x_min":0,"x_max":697,"o":"m 697 -4 q 629 -14 658 -14 q 499 97 514 -14 q 423 9 471 42 q 314 -24 375 -24 q 208 4 258 -24 q 119 81 157 32 l 119 -278 l 0 -278 l 0 738 l 124 738 l 124 343 q 165 172 124 246 q 308 82 217 82 q 453 178 403 82 q 493 358 493 254 l 493 738 l 617 738 l 617 214 q 624 136 617 160 q 674 92 638 92 q 697 96 685 92 l 697 -4 z "},"¶":{"ha":678,"x_min":0,"x_max":567,"o":"m 21 892 l 53 892 l 99 761 l 146 892 l 176 892 l 178 738 l 157 738 l 157 867 l 108 738 l 89 738 l 40 871 l 40 738 l 21 738 l 21 892 m 310 854 l 308 731 q 254 690 308 690 q 229 690 242 690 q 210 696 215 694 l 207 713 l 253 706 q 288 733 288 706 l 288 764 q 244 740 279 740 q 193 797 193 740 q 263 860 193 860 q 289 860 275 860 q 310 854 304 856 m 289 842 l 264 843 q 213 796 213 843 q 249 756 213 756 q 289 796 289 756 l 289 842 m 567 988 l 503 988 l 503 -1 l 439 -1 l 439 988 l 317 988 l 317 -1 l 253 -1 l 253 601 q 82 653 156 601 q 0 806 0 711 q 101 989 0 918 q 310 1053 194 1053 l 567 1053 l 567 988 z "},"·":{"ha":239,"x_min":0,"x_max":142,"o":"m 142 585 l 0 585 l 0 738 l 142 738 l 142 585 z "},"»":{"ha":601,"x_min":0,"x_max":504,"o":"m 504 303 l 282 138 l 282 257 l 429 372 l 282 486 l 282 608 l 504 440 l 504 303 m 222 303 l 0 138 l 0 257 l 146 372 l 0 486 l 0 608 l 222 440 l 222 303 z "},"ÿ":{"ha":125,"x_min":0,"x_max":47,"o":"m 47 3 q 38 -7 47 -7 q 28 0 31 -7 q 39 -4 32 -4 q 44 3 44 -1 l 38 0 q 28 10 28 0 q 38 19 28 19 l 44 15 l 47 19 l 47 3 m 38 1 q 44 9 44 1 q 38 17 44 17 q 31 9 31 17 q 38 1 31 1 m 26 0 l 24 22 l 14 0 l 3 22 l 3 0 l 0 25 l 14 4 l 22 25 l 26 0 z "},"π":{"ha":857,"x_min":0,"x_max":774,"o":"m 774 -7 l 708 -11 q 576 40 608 -11 q 553 175 553 78 l 553 226 l 553 626 l 222 626 l 222 0 l 97 0 l 97 626 l 0 626 l 0 738 l 774 738 l 774 626 l 676 626 l 676 172 q 696 104 676 118 q 774 90 715 90 l 774 -7 z "},"¦":{"ha":792,"x_min":343,"x_max":449,"o":"m 449 463 l 343 463 l 343 986 l 449 986 l 449 463 m 449 -242 l 343 -242 l 343 281 l 449 281 l 449 -242 z "},"­":{"ha":803,"x_min":0,"x_max":706,"o":"m 706 335 l 0 335 l 0 411 l 706 411 l 706 335 z "},"²":{"ha":539,"x_min":0,"x_max":442,"o":"m 442 382 l 0 382 q 92 565 0 492 q 261 668 176 617 q 354 797 354 726 q 316 874 354 844 q 228 904 278 904 q 136 869 174 904 q 99 761 99 833 l 14 761 q 82 922 14 864 q 232 974 142 974 q 379 926 317 974 q 442 797 442 878 q 351 635 442 704 q 183 539 321 611 q 92 454 92 490 l 442 454 l 442 382 z "},"³":{"ha":547,"x_min":0,"x_max":450,"o":"m 450 553 q 379 414 450 465 q 221 367 314 367 q 69 415 131 367 q 0 567 0 471 l 85 567 q 126 471 85 504 q 225 438 168 438 q 320 468 281 438 q 360 553 360 499 q 318 633 360 608 q 214 657 276 657 q 196 657 204 657 q 176 654 182 654 l 176 722 q 281 733 250 722 q 335 815 335 753 q 301 882 335 857 q 221 907 268 907 q 133 876 169 907 q 97 781 97 844 l 15 781 q 79 926 15 875 q 221 972 136 972 q 365 931 304 972 q 426 818 426 889 q 344 697 426 733 q 422 643 393 682 q 450 553 450 604 z "},"½":{"ha":1149,"x_min":0,"x_max":1051,"o":"m 1051 0 l 625 0 q 713 179 625 108 q 878 278 722 188 q 967 386 967 329 q 932 458 967 431 q 850 485 897 485 q 760 451 799 485 q 721 353 721 417 l 640 353 q 707 503 640 449 q 851 551 767 551 q 988 510 932 551 q 1050 386 1050 463 q 976 251 1050 301 q 829 179 903 215 q 717 68 740 133 l 1051 68 l 1051 0 m 835 985 l 215 -28 l 131 -28 l 750 985 l 835 985 m 224 422 l 142 422 l 142 811 l 0 811 l 0 867 q 104 889 63 867 q 164 974 157 917 l 224 974 l 224 422 z "},"Α":{"ha":985,"x_min":0,"x_max":907,"o":"m 907 0 l 757 0 l 650 303 l 251 303 l 143 0 l 0 0 l 376 1013 l 529 1013 l 907 0 m 610 421 l 453 867 l 293 421 l 610 421 z "},"Β":{"ha":876,"x_min":0,"x_max":778,"o":"m 581 546 q 724 469 671 535 q 778 311 778 403 q 674 83 778 171 q 432 0 575 0 l 0 0 l 0 1013 l 411 1013 q 629 957 542 1013 q 732 768 732 892 q 691 633 732 693 q 581 546 650 572 m 393 899 l 139 899 l 139 588 l 379 588 q 521 624 463 588 q 592 744 592 667 q 531 859 592 819 q 393 899 471 899 m 419 124 q 567 169 504 124 q 635 303 635 219 q 560 436 635 389 q 403 476 494 476 l 139 476 l 139 124 l 419 124 z "},"Γ":{"ha":749,"x_min":0,"x_max":706,"o":"m 706 886 l 140 886 l 140 0 l 0 0 l 0 1013 l 706 1013 l 706 886 z "},"Δ":{"ha":1028,"x_min":0,"x_max":953,"o":"m 953 0 l 0 0 l 400 1013 l 551 1013 l 953 0 m 763 124 l 476 867 l 188 124 l 763 124 z "},"Ε":{"ha":778,"x_min":0,"x_max":736,"o":"m 736 0 l 0 0 l 0 1013 l 725 1013 l 725 889 l 139 889 l 139 585 l 678 585 l 678 467 l 139 467 l 139 125 l 736 125 l 736 0 z "},"Ζ":{"ha":850,"x_min":0,"x_max":779,"o":"m 779 0 l 0 0 l 0 114 l 621 896 l 40 896 l 40 1013 l 779 1013 l 779 888 l 171 124 l 779 124 l 779 0 z "},"Η":{"ha":917,"x_min":0,"x_max":803,"o":"m 803 0 l 667 0 l 667 475 l 140 475 l 140 0 l 0 0 l 0 1013 l 140 1013 l 140 599 l 667 599 l 667 1013 l 803 1013 l 803 0 z "},"Θ":{"ha":1056,"x_min":0,"x_max":960,"o":"m 960 507 q 833 129 960 281 q 476 -32 699 -32 q 124 129 256 -32 q 0 507 0 281 q 124 883 0 732 q 476 1044 256 1044 q 832 883 696 1044 q 960 507 960 732 m 817 500 q 733 789 817 669 q 476 924 639 924 q 224 792 317 924 q 142 507 142 675 q 222 222 142 339 q 476 89 315 89 q 731 218 636 89 q 817 500 817 335 m 717 449 l 243 449 l 243 571 l 717 571 l 717 449 z "},"Ι":{"ha":297,"x_min":42,"x_max":181,"o":"m 181 0 l 42 0 l 42 1013 l 181 1013 l 181 0 z "},"Κ":{"ha":893,"x_min":0,"x_max":819,"o":"m 819 0 l 650 0 l 294 510 l 139 357 l 139 0 l 0 0 l 0 1013 l 139 1013 l 139 526 l 626 1013 l 810 1013 l 396 600 l 819 0 z "},"Λ":{"ha":942,"x_min":0,"x_max":863,"o":"m 863 0 l 719 0 l 426 847 l 143 0 l 0 0 l 357 1013 l 501 1013 l 863 0 z "},"Μ":{"ha":1068,"x_min":0,"x_max":954,"o":"m 954 0 l 819 0 l 819 868 l 538 0 l 406 0 l 128 865 l 128 0 l 0 0 l 0 1013 l 200 1013 l 472 158 l 758 1013 l 954 1013 l 954 0 z "},"Ν":{"ha":915,"x_min":0,"x_max":801,"o":"m 801 0 l 651 0 l 131 822 l 131 0 l 0 0 l 0 1013 l 151 1013 l 671 192 l 671 1013 l 801 1013 l 801 0 z "},"Ξ":{"ha":763,"x_min":0,"x_max":735,"o":"m 724 889 l 10 889 l 10 1013 l 724 1013 l 724 889 m 674 463 l 61 463 l 61 589 l 674 589 l 674 463 m 735 0 l 0 0 l 0 124 l 735 124 l 735 0 z "},"Ο":{"ha":1054,"x_min":0,"x_max":958,"o":"m 486 1042 q 835 883 704 1042 q 958 511 958 735 q 835 136 958 288 q 482 -26 701 -26 q 126 131 261 -26 q 0 504 0 279 q 128 881 0 729 q 486 1042 264 1042 m 481 97 q 732 225 639 97 q 815 504 815 340 q 733 783 815 669 q 481 913 640 913 q 226 785 321 913 q 142 504 142 671 q 226 224 142 339 q 481 97 319 97 z "},"Π":{"ha":917,"x_min":0,"x_max":803,"o":"m 803 0 l 667 0 l 667 886 l 140 886 l 140 0 l 0 0 l 0 1013 l 803 1013 l 803 0 z "},"Ρ":{"ha":783,"x_min":0,"x_max":721,"o":"m 425 1013 q 638 933 556 1013 q 721 724 721 853 q 634 509 721 592 q 414 426 547 426 l 140 426 l 140 0 l 0 0 l 0 1013 l 425 1013 m 379 889 l 140 889 l 140 549 l 372 549 q 522 590 460 549 q 593 721 593 638 q 528 845 593 801 q 379 889 464 889 z "},"Σ":{"ha":819,"x_min":0,"x_max":757,"o":"m 757 0 l 0 0 l 0 107 l 396 524 l 22 904 l 22 1013 l 746 1013 l 746 889 l 210 889 l 567 524 l 188 125 l 757 125 l 757 0 z "},"Τ":{"ha":839,"x_min":0,"x_max":778,"o":"m 778 893 l 458 893 l 458 0 l 319 0 l 319 892 l 0 892 l 0 1013 l 778 1013 l 778 893 z "},"Υ":{"ha":889,"x_min":0,"x_max":819,"o":"m 819 1013 l 482 417 l 482 0 l 342 0 l 342 417 l 0 1013 l 140 1013 l 411 533 l 679 1013 l 819 1013 z "},"Φ":{"ha":997,"x_min":0,"x_max":915,"o":"m 526 0 l 389 0 l 389 122 q 110 231 221 122 q 0 510 0 340 q 110 785 0 678 q 389 893 221 893 l 389 1013 l 526 1013 l 526 893 q 804 786 693 893 q 915 510 915 679 q 806 232 915 342 q 526 122 696 122 l 526 0 m 526 226 q 713 311 642 226 q 779 508 779 390 q 713 706 779 628 q 526 788 642 788 l 526 226 m 389 226 l 389 788 q 206 699 275 776 q 136 506 136 621 q 206 309 136 392 q 389 226 276 226 z "},"Χ":{"ha":935,"x_min":0,"x_max":854,"o":"m 854 0 l 683 0 l 424 410 l 167 0 l 0 0 l 347 519 l 18 1013 l 186 1013 l 428 638 l 675 1013 l 836 1013 l 504 521 l 854 0 z "},"Ψ":{"ha":1094,"x_min":0,"x_max":1006,"o":"m 1006 678 q 914 319 1006 429 q 571 200 814 200 l 571 0 l 433 0 l 433 200 q 93 319 194 200 q 0 678 0 429 l 0 1013 l 139 1013 l 139 679 q 192 418 139 493 q 433 326 256 326 l 433 1013 l 571 1013 l 571 326 l 581 326 q 814 424 747 326 q 868 679 868 503 l 868 1013 l 1006 1013 l 1006 678 z "},"Ω":{"ha":1068,"x_min":0,"x_max":969,"o":"m 969 0 l 556 0 l 556 124 q 744 309 675 194 q 814 558 814 424 q 726 813 814 710 q 485 922 633 922 q 244 821 335 922 q 154 568 154 719 q 224 317 154 433 q 413 124 293 200 l 413 0 l 0 0 l 0 124 l 218 124 q 69 327 122 210 q 15 572 15 444 q 145 912 15 782 q 485 1042 275 1042 q 822 910 692 1042 q 953 569 953 778 q 899 326 953 443 q 750 124 846 210 l 969 124 l 969 0 z "},"Ϊ":{"ha":275,"x_min":-110,"x_max":246,"o":"m 246 1046 l 118 1046 l 118 1189 l 246 1189 l 246 1046 m 18 1046 l -110 1046 l -110 1189 l 18 1189 l 18 1046 m 136 0 l 0 0 l 0 1013 l 136 1013 l 136 0 z "},"Ϋ":{"ha":889,"x_min":0,"x_max":819,"o":"m 588 1046 l 460 1046 l 460 1189 l 588 1189 l 588 1046 m 360 1046 l 232 1046 l 232 1189 l 360 1189 l 360 1046 m 819 1013 l 482 417 l 482 0 l 342 0 l 342 417 l 0 1013 l 140 1013 l 411 533 l 679 1013 l 819 1013 z "},"ά":{"ha":808,"x_min":0,"x_max":765,"o":"m 765 -4 q 699 -14 726 -14 q 564 97 586 -14 q 466 7 525 40 q 338 -26 407 -26 q 89 99 186 -26 q 0 369 0 213 q 89 638 0 525 q 338 760 185 760 q 465 728 407 760 q 563 638 524 696 l 563 739 l 685 739 l 685 222 q 693 142 685 168 q 749 94 708 94 q 765 96 760 94 l 765 -4 m 583 371 q 531 563 583 485 q 360 653 469 653 q 192 567 254 653 q 135 379 135 489 q 186 181 135 261 q 358 83 247 83 q 528 176 465 83 q 583 371 583 260 m 604 1040 l 415 819 l 332 819 l 467 1040 l 604 1040 z "},"έ":{"ha":714,"x_min":0,"x_max":635,"o":"m 635 235 q 528 39 635 111 q 300 -25 433 -25 q 99 29 183 -25 q 0 204 0 93 q 38 314 0 265 q 129 390 68 353 q 57 460 83 419 q 26 556 26 506 q 115 713 26 654 q 296 763 192 763 q 500 700 417 763 q 590 515 590 632 l 479 515 q 420 619 465 581 q 308 657 375 657 q 208 631 254 657 q 151 547 151 599 q 239 446 151 469 q 390 435 281 435 l 390 332 l 350 332 q 207 315 256 332 q 125 211 125 288 q 183 108 125 146 q 303 76 233 76 q 436 118 379 76 q 510 235 493 160 l 635 235 m 521 1040 l 332 819 l 249 819 l 383 1040 l 521 1040 z "},"ή":{"ha":810,"x_min":0,"x_max":697,"o":"m 697 -278 l 572 -278 l 572 454 q 540 588 572 536 q 425 650 501 650 q 272 580 338 650 q 206 421 206 510 l 206 0 l 81 0 l 81 490 q 72 589 81 563 q 0 644 56 644 l 0 742 q 68 756 38 756 q 158 722 124 756 q 200 631 193 688 q 297 727 235 693 q 435 761 360 761 q 621 693 544 761 q 697 517 697 625 l 697 -278 m 479 1040 l 290 819 l 207 819 l 342 1040 l 479 1040 z "},"ί":{"ha":361,"x_min":42,"x_max":326,"o":"m 283 3 q 233 -10 258 -6 q 182 -15 207 -15 q 85 26 119 -15 q 42 200 42 79 l 42 738 l 167 738 l 168 215 q 172 142 168 157 q 226 101 183 101 q 248 103 239 101 q 283 113 257 104 l 283 3 m 326 1040 l 138 819 l 54 819 l 189 1040 l 326 1040 z "},"ΰ":{"ha":725,"x_min":0,"x_max":617,"o":"m 524 800 l 414 800 l 414 925 l 524 925 l 524 800 m 183 800 l 74 800 l 74 925 l 183 925 l 183 800 m 617 353 q 540 94 617 200 q 308 -24 456 -24 q 76 94 161 -24 q 0 353 0 200 l 0 739 l 126 739 l 126 356 q 169 186 126 258 q 313 99 221 99 q 451 186 403 99 q 492 356 492 258 l 492 739 l 617 739 l 617 353 m 489 1040 l 300 819 l 217 819 l 351 1040 l 489 1040 z "},"α":{"ha":808,"x_min":0,"x_max":765,"o":"m 765 -4 q 699 -14 726 -14 q 564 97 586 -14 q 466 7 525 40 q 338 -26 407 -26 q 89 99 186 -26 q 0 369 0 213 q 89 638 0 525 q 338 760 185 760 q 465 728 407 760 q 563 638 524 696 l 563 739 l 685 739 l 685 222 q 693 142 685 168 q 749 94 708 94 q 765 96 760 94 l 765 -4 m 583 371 q 531 563 583 485 q 360 653 469 653 q 192 567 254 653 q 135 379 135 489 q 186 181 135 261 q 358 83 247 83 q 528 176 465 83 q 583 371 583 260 z "},"β":{"ha":744,"x_min":0,"x_max":660,"o":"m 471 550 q 610 450 561 522 q 660 281 660 378 q 578 65 660 151 q 368 -22 497 -22 q 240 5 300 -22 q 126 82 179 32 l 126 -278 l 0 -278 l 0 593 q 54 903 0 801 q 318 1042 128 1042 q 519 965 436 1042 q 603 771 603 888 q 567 644 603 701 q 471 550 532 586 m 338 79 q 476 139 418 79 q 535 279 535 199 q 428 438 535 386 q 226 478 344 478 l 226 583 q 399 621 329 583 q 486 763 486 668 q 435 884 486 833 q 313 935 385 935 q 169 861 219 935 q 126 699 126 797 l 126 363 q 171 169 126 243 q 338 79 225 79 z "},"γ":{"ha":822,"x_min":0,"x_max":744,"o":"m 744 738 l 463 54 l 463 -278 l 338 -278 l 338 54 l 154 496 q 104 597 124 569 q 13 651 67 651 l 0 651 l 0 751 l 39 753 q 168 711 121 753 q 242 594 207 676 l 403 208 l 617 738 l 744 738 z "},"δ":{"ha":810,"x_min":1,"x_max":710,"o":"m 710 361 q 617 88 710 197 q 357 -28 518 -28 q 99 83 197 -28 q 1 357 1 193 q 101 606 1 510 q 356 703 200 703 q 181 829 289 754 q 71 904 125 867 l 71 1013 l 643 1013 l 643 901 l 258 901 q 463 764 422 794 q 636 593 578 678 q 710 361 710 486 m 583 365 q 552 501 583 447 q 451 603 521 556 q 372 611 411 611 q 197 542 258 611 q 136 356 136 472 q 190 171 136 246 q 358 85 253 85 q 528 174 465 85 q 583 365 583 253 z "},"ε":{"ha":714,"x_min":0,"x_max":635,"o":"m 635 235 q 528 39 635 111 q 300 -25 433 -25 q 99 29 183 -25 q 0 204 0 93 q 38 314 0 265 q 129 390 68 353 q 57 460 83 419 q 26 556 26 506 q 115 713 26 654 q 296 763 192 763 q 500 700 417 763 q 590 515 590 632 l 479 515 q 420 619 465 581 q 308 657 375 657 q 208 631 254 657 q 151 547 151 599 q 239 446 151 469 q 390 435 281 435 l 390 332 l 350 332 q 207 315 256 332 q 125 211 125 288 q 183 108 125 146 q 303 76 233 76 q 436 118 379 76 q 510 235 493 160 l 635 235 z "},"ζ":{"ha":642,"x_min":0,"x_max":572,"o":"m 572 -40 q 553 -162 572 -97 q 510 -278 543 -193 l 400 -278 q 440 -187 428 -219 q 461 -90 461 -132 q 378 -14 461 -14 q 108 46 197 -14 q 0 290 0 118 q 108 632 0 463 q 353 901 194 768 l 56 901 l 56 1013 l 561 1013 l 561 925 q 261 669 382 832 q 128 301 128 490 q 243 118 128 150 q 457 99 350 108 q 572 -40 572 81 z "},"η":{"ha":810,"x_min":0,"x_max":697,"o":"m 697 -278 l 572 -278 l 572 454 q 540 588 572 536 q 425 650 501 650 q 272 580 338 650 q 206 421 206 510 l 206 0 l 81 0 l 81 490 q 72 589 81 563 q 0 644 56 644 l 0 742 q 68 756 38 756 q 158 722 124 756 q 200 631 193 688 q 297 727 235 693 q 435 761 360 761 q 621 693 544 761 q 697 517 697 625 l 697 -278 z "},"θ":{"ha":778,"x_min":0,"x_max":674,"o":"m 674 496 q 601 160 674 304 q 336 -26 508 -26 q 74 153 165 -26 q 0 485 0 296 q 72 840 0 683 q 343 1044 167 1044 q 606 844 517 1044 q 674 496 674 692 m 546 579 q 499 799 546 692 q 336 935 438 935 q 179 799 238 935 q 126 579 138 701 l 546 579 m 546 475 l 126 475 q 171 233 126 349 q 339 79 231 79 q 504 233 447 79 q 546 475 546 346 z "},"ι":{"ha":361,"x_min":42,"x_max":283,"o":"m 283 3 q 233 -10 258 -6 q 182 -15 207 -15 q 85 26 119 -15 q 42 200 42 79 l 42 738 l 167 738 l 168 215 q 172 142 168 157 q 226 101 183 101 q 248 103 239 101 q 283 113 257 104 l 283 3 z "},"κ":{"ha":679,"x_min":0,"x_max":632,"o":"m 632 0 l 482 0 l 225 385 l 124 289 l 124 0 l 0 0 l 0 738 l 124 738 l 124 446 l 433 738 l 596 738 l 313 467 l 632 0 z "},"λ":{"ha":803,"x_min":0,"x_max":750,"o":"m 750 -7 q 679 -15 717 -15 q 539 60 592 -15 q 467 214 513 97 l 336 551 l 126 0 l 0 0 l 271 706 q 224 838 247 771 q 117 900 190 900 q 90 899 100 900 l 90 1004 q 153 1011 125 1011 q 299 939 244 1011 q 374 783 326 901 l 606 193 q 649 116 629 136 q 717 96 669 96 l 736 96 q 750 97 746 97 l 750 -7 z "},"μ":{"ha":747,"x_min":0,"x_max":697,"o":"m 697 -4 q 629 -14 658 -14 q 499 97 514 -14 q 423 9 471 42 q 314 -24 375 -24 q 208 4 258 -24 q 119 81 157 32 l 119 -278 l 0 -278 l 0 738 l 124 738 l 124 343 q 165 172 124 246 q 308 82 217 82 q 453 178 403 82 q 493 358 493 254 l 493 738 l 617 738 l 617 214 q 624 136 617 160 q 674 92 638 92 q 697 96 685 92 l 697 -4 z "},"ν":{"ha":761,"x_min":0,"x_max":675,"o":"m 675 738 l 404 0 l 272 0 l 0 738 l 133 738 l 340 147 l 542 738 l 675 738 z "},"ξ":{"ha":699,"x_min":0,"x_max":625,"o":"m 625 -37 q 609 -153 625 -96 q 564 -278 593 -211 l 454 -278 q 492 -183 486 -200 q 511 -83 511 -126 q 485 -24 511 -44 q 371 1 453 1 q 324 0 354 1 q 283 -1 293 -1 q 85 76 169 -1 q 0 267 0 154 q 57 432 0 358 q 197 539 108 499 q 94 614 135 563 q 54 731 54 665 q 78 824 54 781 q 143 901 101 868 l 28 901 l 28 1013 l 576 1013 l 576 901 l 381 901 q 244 864 303 901 q 178 746 178 821 q 313 600 178 636 q 532 582 381 582 l 532 479 q 276 456 361 479 q 118 282 118 411 q 165 174 118 218 q 275 121 208 133 q 494 101 385 111 q 625 -37 625 76 z "},"ο":{"ha":815,"x_min":0,"x_max":713,"o":"m 357 -25 q 97 88 193 -25 q 0 368 0 201 q 93 643 0 533 q 357 761 193 761 q 618 644 518 761 q 713 368 713 533 q 619 92 713 201 q 357 -25 521 -25 m 357 85 q 528 175 465 85 q 583 369 583 256 q 529 563 583 485 q 357 651 467 651 q 189 561 250 651 q 135 369 135 482 q 188 178 135 257 q 357 85 250 85 z "},"ρ":{"ha":797,"x_min":0,"x_max":713,"o":"m 713 369 q 621 94 713 207 q 363 -26 522 -26 q 231 2 293 -26 q 119 83 168 31 l 119 -278 l 0 -278 l 0 363 q 92 643 0 532 q 356 764 190 764 q 618 647 518 764 q 713 369 713 536 m 583 367 q 531 560 583 481 q 360 651 469 651 q 190 563 253 651 q 135 371 135 483 q 189 176 135 257 q 360 85 250 85 q 529 175 467 85 q 583 367 583 254 z "},"ς":{"ha":740,"x_min":1,"x_max":676,"o":"m 676 461 l 551 461 q 499 596 543 547 q 365 651 449 651 q 200 578 264 651 q 136 401 136 506 q 267 179 136 242 q 508 107 388 143 q 640 -50 640 63 q 626 -158 640 -106 q 583 -278 611 -211 l 465 -278 q 499 -182 490 -211 q 515 -81 515 -126 q 382 13 515 -15 q 135 92 197 51 q 1 389 1 179 q 101 652 1 543 q 354 761 200 761 q 588 681 499 761 q 676 461 676 600 z "},"σ":{"ha":894,"x_min":0,"x_max":804,"o":"m 804 628 l 635 628 q 714 368 714 513 q 619 93 714 204 q 358 -25 519 -25 q 94 92 194 -25 q 0 368 0 201 q 94 644 0 533 q 357 761 194 761 q 482 750 399 761 q 610 739 565 739 l 804 739 l 804 628 m 361 85 q 531 181 468 85 q 585 375 585 263 q 528 567 585 490 q 353 651 464 651 q 188 560 247 651 q 135 368 135 479 q 189 175 135 254 q 361 85 251 85 z "},"τ":{"ha":703,"x_min":0,"x_max":644,"o":"m 644 628 l 382 628 l 382 179 q 389 121 382 138 q 436 92 401 92 q 474 94 447 92 q 504 97 501 97 l 504 0 q 454 -10 482 -6 q 401 -14 426 -14 q 278 68 308 -14 q 260 233 260 118 l 260 628 l 0 628 l 0 739 l 644 739 l 644 628 z "},"υ":{"ha":725,"x_min":0,"x_max":617,"o":"m 617 353 q 540 94 617 200 q 308 -24 456 -24 q 76 94 161 -24 q 0 353 0 200 l 0 739 l 126 739 l 126 356 q 169 186 126 258 q 313 99 221 99 q 451 186 403 99 q 492 356 492 258 l 492 739 l 617 739 l 617 353 z "},"φ":{"ha":974,"x_min":-1,"x_max":878,"o":"m 496 -279 l 378 -279 l 378 -17 q 101 89 204 -17 q -1 368 -1 194 q 69 626 -1 511 q 283 758 151 758 l 283 647 q 168 538 210 626 q 133 374 133 463 q 193 178 133 254 q 378 93 260 93 l 378 758 q 445 765 426 764 q 476 765 464 765 q 765 660 653 765 q 878 378 878 554 q 772 97 878 210 q 496 -17 665 -17 l 496 -279 m 496 93 l 514 93 q 688 183 624 93 q 746 381 746 265 q 692 569 746 492 q 522 658 629 658 l 496 657 l 496 93 z "},"χ":{"ha":815,"x_min":8,"x_max":781,"o":"m 781 -279 q 715 -294 747 -294 q 617 -258 664 -294 q 549 -176 576 -228 l 379 133 l 143 -278 l 10 -278 l 314 254 l 164 522 q 128 586 132 581 q 36 640 92 640 q 8 638 28 640 l 8 753 l 53 757 q 163 719 114 757 q 236 628 200 690 l 383 372 l 594 738 l 726 738 l 449 250 l 625 -69 q 671 -154 647 -111 q 743 -189 696 -189 q 781 -185 760 -189 l 781 -279 z "},"ψ":{"ha":907,"x_min":0,"x_max":808,"o":"m 465 -278 l 342 -278 l 342 -15 q 88 101 181 -15 q 0 378 0 210 l 0 739 l 133 739 l 133 379 q 183 194 133 275 q 342 97 243 97 l 342 922 l 465 922 l 465 97 q 624 194 564 97 q 675 382 675 278 l 675 742 l 808 742 l 808 381 q 721 104 808 213 q 467 -12 628 -12 l 465 -278 z "},"ω":{"ha":1031,"x_min":0,"x_max":922,"o":"m 922 339 q 857 97 922 203 q 650 -26 781 -26 q 538 9 588 -26 q 461 103 489 44 q 388 12 436 46 q 278 -22 339 -22 q 69 97 147 -22 q 0 339 0 203 q 46 551 0 444 q 161 738 85 643 l 303 738 q 175 553 219 647 q 124 336 124 446 q 156 179 124 249 q 275 88 197 88 q 375 163 342 88 q 400 294 400 219 l 400 572 l 524 572 l 524 294 q 561 135 524 192 q 643 88 592 88 q 763 182 719 88 q 797 342 797 257 q 746 556 797 450 q 619 738 706 638 l 761 738 q 875 551 836 640 q 922 339 922 444 z "},"ϊ":{"ha":361,"x_min":-69,"x_max":283,"o":"m 283 800 l 174 800 l 174 925 l 283 925 l 283 800 m 40 800 l -69 800 l -69 925 l 40 925 l 40 800 m 283 3 q 233 -10 258 -6 q 182 -15 207 -15 q 85 26 119 -15 q 42 200 42 79 l 42 738 l 167 738 l 168 215 q 172 142 168 157 q 226 101 183 101 q 248 103 239 101 q 283 113 257 104 l 283 3 z "},"ϋ":{"ha":725,"x_min":0,"x_max":617,"o":"m 482 800 l 372 800 l 372 925 l 482 925 l 482 800 m 239 800 l 129 800 l 129 925 l 239 925 l 239 800 m 617 353 q 540 94 617 200 q 308 -24 456 -24 q 76 94 161 -24 q 0 353 0 200 l 0 739 l 126 739 l 126 356 q 169 186 126 258 q 313 99 221 99 q 451 186 403 99 q 492 356 492 258 l 492 739 l 617 739 l 617 353 z "},"ό":{"ha":815,"x_min":0,"x_max":713,"o":"m 357 -25 q 94 92 194 -25 q 0 368 0 203 q 93 643 0 533 q 357 761 193 761 q 618 644 518 761 q 713 368 713 533 q 619 92 713 201 q 357 -25 521 -25 m 357 85 q 528 175 465 85 q 583 369 583 256 q 529 563 583 485 q 357 651 467 651 q 189 561 250 651 q 135 369 135 482 q 188 178 135 257 q 357 85 250 85 m 576 1040 l 388 819 l 304 819 l 439 1040 l 576 1040 z "},"ύ":{"ha":725,"x_min":0,"x_max":617,"o":"m 617 353 q 540 94 617 200 q 308 -24 456 -24 q 76 94 161 -24 q 0 353 0 200 l 0 739 l 126 739 l 126 356 q 169 186 126 258 q 313 99 221 99 q 451 186 403 99 q 492 356 492 258 l 492 739 l 617 739 l 617 353 m 535 1040 l 346 819 l 263 819 l 397 1040 l 535 1040 z "},"ώ":{"ha":1031,"x_min":0,"x_max":922,"o":"m 688 1040 l 499 819 l 415 819 l 550 1040 l 688 1040 m 922 339 q 857 97 922 203 q 650 -26 781 -26 q 538 9 588 -26 q 461 103 489 44 q 388 12 436 46 q 278 -22 339 -22 q 69 97 147 -22 q 0 339 0 203 q 46 551 0 444 q 161 738 85 643 l 303 738 q 175 553 219 647 q 124 336 124 446 q 156 179 124 249 q 275 88 197 88 q 375 163 342 88 q 400 294 400 219 l 400 572 l 524 572 l 524 294 q 561 135 524 192 q 643 88 592 88 q 763 182 719 88 q 797 342 797 257 q 746 556 797 450 q 619 738 706 638 l 761 738 q 875 551 836 640 q 922 339 922 444 z "},"Ά":{"ha":982,"x_min":0,"x_max":907,"o":"m 283 1040 l 89 800 l 6 800 l 146 1040 l 283 1040 m 907 0 l 757 0 l 650 303 l 251 303 l 143 0 l 0 0 l 376 1013 l 529 1013 l 907 0 m 610 421 l 453 867 l 293 421 l 610 421 z "},"Έ":{"ha":1118,"x_min":0,"x_max":1078,"o":"m 1078 0 l 342 0 l 342 1013 l 1067 1013 l 1067 889 l 481 889 l 481 585 l 1019 585 l 1019 467 l 481 467 l 481 125 l 1078 125 l 1078 0 m 278 1040 l 83 800 l 0 800 l 140 1040 l 278 1040 z "},"Ή":{"ha":1275,"x_min":0,"x_max":1158,"o":"m 1158 0 l 1022 0 l 1022 475 l 496 475 l 496 0 l 356 0 l 356 1013 l 496 1013 l 496 599 l 1022 599 l 1022 1013 l 1158 1013 l 1158 0 m 278 1040 l 83 800 l 0 800 l 140 1040 l 278 1040 z "},"Ί":{"ha":613,"x_min":0,"x_max":499,"o":"m 278 1040 l 83 800 l 0 800 l 140 1040 l 278 1040 m 499 0 l 360 0 l 360 1013 l 499 1013 l 499 0 z "},"Ό":{"ha":1217,"x_min":0,"x_max":1119,"o":"m 1119 506 q 994 132 1119 282 q 642 -29 861 -29 q 290 131 422 -29 q 167 506 167 281 q 294 883 167 731 q 650 1046 431 1046 q 999 882 868 1046 q 1119 506 1119 731 m 976 504 q 896 785 976 669 q 644 915 804 915 q 392 786 485 915 q 307 504 307 669 q 392 224 307 339 q 644 94 486 94 q 894 224 803 94 q 976 504 976 339 m 278 1040 l 83 800 l 0 800 l 140 1040 l 278 1040 z "},"Ύ":{"ha":1214,"x_min":0,"x_max":1144,"o":"m 1144 1013 l 807 417 l 807 0 l 667 0 l 667 417 l 325 1013 l 465 1013 l 736 533 l 1004 1013 l 1144 1013 m 278 1040 l 83 800 l 0 800 l 140 1040 l 278 1040 z "},"Ώ":{"ha":1235,"x_min":0,"x_max":1136,"o":"m 1136 0 l 722 0 l 722 124 q 911 309 842 194 q 981 558 981 424 q 893 813 981 710 q 651 922 800 922 q 411 821 501 922 q 321 568 321 719 q 390 317 321 433 q 579 124 460 200 l 579 0 l 167 0 l 167 124 l 385 124 q 235 327 289 210 q 182 572 182 444 q 312 912 182 782 q 651 1042 442 1042 q 989 910 858 1042 q 1119 569 1119 778 q 1066 326 1119 443 q 917 124 1013 210 l 1136 124 l 1136 0 m 278 1040 l 83 800 l 0 800 l 140 1040 l 278 1040 z "},"ΐ":{"ha":361,"x_min":-111,"x_max":339,"o":"m 339 800 l 229 800 l 229 925 l 339 925 l 339 800 m -1 800 l -111 800 l -111 925 l -1 925 l -1 800 m 283 3 q 233 -10 258 -6 q 182 -15 207 -15 q 85 26 119 -15 q 42 200 42 79 l 42 738 l 167 738 l 168 215 q 172 142 168 157 q 226 101 183 101 q 248 103 239 101 q 283 113 257 104 l 283 3 m 303 1040 l 114 819 l 31 819 l 165 1040 l 303 1040 z "},"⁋":{"ha":694,"x_min":0,"x_max":0,"o":""},"΅":{"ha":553,"x_min":0,"x_max":450,"o":"m 450 800 l 340 800 l 340 925 l 450 925 l 450 800 m 407 1040 l 213 800 l 129 800 l 269 1040 l 407 1040 m 110 800 l 0 800 l 0 925 l 110 925 l 110 800 z "}}}
